<svg width="56" height="56" viewBox="0 0 56 56" fill="none" xmlns="http://www.w3.org/2000/svg">
<circle cx="28" cy="28" r="27.5" stroke="#FEFCF9"/>
<path d="M28 32.6668C30.5773 32.6668 32.6667 30.5774 32.6667 28.0002C32.6667 25.4228 30.5773 23.3335 28 23.3335C25.4227 23.3335 23.3333 25.4228 23.3333 28.0002C23.3333 30.5774 25.4227 32.6668 28 32.6668Z" stroke="#FEFCF9" stroke-width="1.5" stroke-linecap="round" stroke-linejoin="round"/>
<path d="M17.5 32.6667V23.3333C17.5 20.1117 20.1117 17.5 23.3333 17.5H32.6667C35.8883 17.5 38.5 20.1117 38.5 23.3333V32.6667C38.5 35.8883 35.8883 38.5 32.6667 38.5H23.3333C20.1117 38.5 17.5 35.8883 17.5 32.6667Z" stroke="#FEFCF9" stroke-width="1.5"/>
<path d="M34.4167 21.595L34.4283 21.582" stroke="#FEFCF9" stroke-width="1.5" stroke-linecap="round" stroke-linejoin="round"/>
</svg>
