<svg width="162" height="73" viewBox="0 0 162 73" fill="none" xmlns="http://www.w3.org/2000/svg">
<path d="M60.8555 72.2678C59.6614 71.9806 58.4219 71.8899 57.2429 71.5423C51.0455 69.7586 47.2514 65.6169 45.6643 59.4649C44.1981 53.7663 44.9085 48.3095 48.234 43.3667C50.985 39.3006 54.9755 37.2449 59.7974 36.6554C61.7776 36.4135 63.7577 36.4438 65.7379 36.7159C68.7459 37.124 71.4364 38.3332 73.8398 40.1773C74.0212 40.3285 74.2177 40.6308 74.4596 40.4948C74.6863 40.3587 74.5654 40.0262 74.5654 39.7994C74.5654 31.4254 74.5654 23.0513 74.5654 14.6924C74.5654 13.5285 74.52 13.4831 73.3864 13.4831C70.3935 13.468 67.4006 13.468 64.4077 13.468C63.1229 13.468 63.1229 13.468 63.1229 14.7831C63.1229 21.041 63.1229 27.2988 63.1229 33.5567C63.1229 34.9776 63.0926 35.0229 61.6264 35.0229C60.7497 35.0229 59.8579 35.0229 58.9812 35.0229C58.044 35.0229 57.9533 34.9322 57.9533 33.9648C57.9533 27.6011 57.9533 21.2375 57.9684 14.8889C57.9684 14.6622 57.9533 14.4354 57.9684 14.2087C58.0138 13.6494 57.7568 13.4378 57.2126 13.468C56.4871 13.4983 55.7464 13.468 55.0209 13.468C54.5372 13.4831 54.3256 13.2564 54.3407 12.7878C54.3558 12.153 54.3709 11.5332 54.3407 10.8984C54.3104 10.3089 54.5674 10.0972 55.1418 10.0972C56.5324 10.1275 57.908 10.0972 59.2986 10.1124C64.0751 10.1275 68.8668 10.1275 73.6433 10.0065C74.3084 9.99143 74.5956 9.79493 74.5805 9.08449C74.5503 7.52758 74.5352 5.97067 74.5805 4.41376C74.5956 3.70333 74.3084 3.52194 73.6433 3.52194C69.018 3.53706 64.3775 3.52194 59.7521 3.50683C58.6637 3.50683 58.6033 3.44636 58.6033 2.35804C58.6033 1.90457 58.6033 1.4511 58.6033 0.997631C58.6184 0.105809 58.694 0.0302313 59.616 0.0151156C59.6614 0.0151156 59.7218 0.0151156 59.7672 0.0151156C71.2248 0 82.6674 0 94.125 0C95.2889 0 95.3191 0.0302313 95.3191 1.17902C95.3191 1.60226 95.3191 2.04061 95.3191 2.46385C95.304 3.43125 95.2436 3.50683 94.3064 3.50683C90.2252 3.52194 86.1591 3.52194 82.0779 3.52194C81.3674 3.52194 80.6721 3.53706 79.9617 3.52194C79.3873 3.50683 79.1303 3.77891 79.1605 4.3533C79.1757 4.61027 79.1605 4.85212 79.1605 5.10908C79.1605 19.1666 79.1605 33.209 79.1605 47.2666C79.1605 48.5967 79.1605 48.5967 77.8304 48.5967C76.999 48.5967 76.1676 48.5816 75.3363 48.5967C74.8223 48.6119 74.52 48.4305 74.2631 47.9619C70.8167 41.5529 62.8205 39.2855 56.5173 42.9435C54.4011 44.1679 52.8896 45.9969 51.9978 48.2491C50.063 53.1617 50.2141 57.9835 53.2523 62.4275C56.0034 66.4483 60.0544 67.9296 64.8007 67.5366C67.6424 67.3099 70.1516 66.1913 72.1469 64.0751C73.1899 62.9717 73.9305 61.702 74.3235 60.2358C74.5654 59.3591 74.5503 59.3439 73.6584 59.3288C72.1469 59.3288 70.6353 59.2986 69.1238 59.3288C68.4587 59.3439 68.2168 59.1021 68.2471 58.4521C68.2773 57.5301 68.2622 56.5929 68.2471 55.6557C68.2471 55.172 68.4133 54.9151 68.9424 54.9151C72.7666 54.9151 76.5909 54.9151 80.4151 54.8848C80.9593 54.8848 81.0953 55.1569 81.0953 55.6406C81.0198 63.5159 77.3164 69.9249 68.3377 71.8143C67.5064 71.9957 66.6599 72.1167 65.8286 72.2678C64.181 72.2678 62.5182 72.2678 60.8555 72.2678Z" fill="#F5F0E8"/>
<path d="M99.5213 72.2678C98.2667 72.026 96.997 71.8748 95.7575 71.5423C89.0764 69.7284 84.1487 63.8786 83.4685 57.0162C83.136 53.6756 83.3627 50.4257 84.6173 47.3119C87.0056 41.4622 91.4042 38.0007 97.5714 36.8519C102.257 35.9752 106.762 36.5798 110.903 39.0588C115.68 41.9308 118.31 46.2538 119.005 51.7408C119.58 56.1546 118.945 60.3718 116.542 64.2112C113.579 68.9424 109.195 71.4365 103.723 72.1469C103.482 72.1771 103.24 72.2376 102.983 72.2829C101.834 72.2678 100.67 72.2678 99.5213 72.2678ZM113.397 55.2627C113.397 50.4409 111.886 46.8282 109.105 44.2132C104.494 39.875 96.6191 40.2832 92.5832 45.105C89.0008 49.3828 88.3055 54.2651 90.0741 59.4044C92.5228 66.539 100.398 69.6982 106.807 66.1762C111.402 63.667 113.186 59.4347 113.397 55.2627Z" fill="#F5F0E8"/>
<path d="M0 3.49171C1.60226 3.99053 3.20451 4.50446 4.80677 5.00328C7.10434 5.6986 9.46238 6.01602 11.8507 6.19741C16.2493 6.52996 20.6328 6.01602 25.0315 5.87998C28.2209 5.77417 31.4103 5.74394 34.5694 6.34857C39.0739 7.21016 42.8679 9.35658 45.9666 12.6971C48.8688 15.811 47.6596 19.7259 44.7876 21.9781C44.0167 22.5828 43.0795 22.6583 42.1273 22.3862C40.8878 22.0386 39.8599 21.2979 38.8623 20.527C35.1741 17.6853 31.0324 16.2191 26.3465 16.1284C24.2303 16.0981 22.1293 16.2644 20.0282 16.2795C16.4458 16.3249 13.1355 15.3121 10.067 13.4831C5.95556 11.0344 2.67547 7.73921 0 3.79403C0 3.68822 0 3.59752 0 3.49171Z" fill="#F5F0E8"/>
<path d="M134.136 4.8219C137.93 4.83701 141.724 5.13932 145.518 5.26025C150.854 5.42652 156.039 4.65562 161.027 2.67548C161.238 2.58478 161.526 2.34293 161.707 2.58478C161.903 2.82663 161.601 3.05337 161.48 3.23475C157.414 8.82754 152.517 13.2866 145.548 14.8889C143.901 15.2668 142.223 15.2819 140.53 15.1912C136.222 14.9494 131.914 14.8738 127.833 16.6121C125.974 17.4132 124.281 18.4713 122.663 19.6806C121.817 20.3154 120.955 20.9352 119.927 21.2526C118.597 21.6607 117.403 21.4642 116.405 20.4212C115.045 19.0155 114.138 17.4434 114.168 15.4028C114.199 13.4378 115.302 12.032 116.617 10.8077C119.912 7.7241 123.797 5.75906 128.347 5.13932C130.266 4.86724 132.201 4.79166 134.136 4.8219Z" fill="#F5F0E8"/>
<path d="M84.0731 22.7339C84.0731 18.8643 84.0731 14.9947 84.0731 11.1251C84.0731 10.1426 84.1185 10.0972 85.0859 10.0972C88.6078 10.0972 92.1298 10.0821 95.6517 10.1275C98.0249 10.1577 100.292 10.6716 102.287 12.0623C105.613 14.3598 105.658 18.9701 102.348 21.313C101.154 22.1595 101.154 22.1595 102.408 22.7944C106.958 25.1071 107.306 30.5487 103.119 33.5265C101.456 34.7055 99.5818 35.1589 97.5865 35.3101C93.2937 35.6275 88.9857 35.1892 84.6929 35.3706C84.0429 35.4008 84.058 34.9473 84.058 34.509C84.058 30.8963 84.058 27.2686 84.058 23.656C84.0731 23.3385 84.0731 23.0362 84.0731 22.7339ZM90.331 28.1302C90.331 29.415 90.331 30.6998 90.331 31.9695C90.331 32.3626 90.4066 32.6649 90.9054 32.6498C92.2356 32.6195 93.5809 32.68 94.8959 32.5591C96.7249 32.3928 98.3725 31.8335 99.1434 29.9441C100.277 27.1628 98.3876 24.0943 95.3343 23.7013C93.9285 23.5199 92.5228 23.5653 91.117 23.5501C90.5426 23.535 90.3008 23.7618 90.3159 24.3513C90.3461 25.621 90.331 26.8756 90.331 28.1302ZM92.8251 20.9654C93.4297 20.9654 94.0343 20.9956 94.639 20.9654C96.6947 20.8596 97.9493 19.7864 98.3423 17.8516C98.7504 15.8261 97.9493 14.1331 96.1656 13.2866C94.4727 12.4855 92.6437 12.5611 90.8298 12.5913C90.4368 12.5913 90.3461 12.8785 90.3461 13.2111C90.3461 15.5691 90.3461 17.9422 90.3461 20.3003C90.3461 20.784 90.5577 20.9805 91.0263 20.9805C91.6158 20.9654 92.2205 20.9654 92.8251 20.9654Z" fill="#F5F0E8"/>
<path d="M4.48932 17.5341C5.7288 17.9876 6.89271 18.4562 8.08684 18.8341C12.0623 20.1038 16.1737 20.3154 20.3154 20.2247C22.6583 20.1794 24.9861 19.998 27.329 20.0735C30.8812 20.1945 34.3427 20.6328 37.5321 22.356C39.346 23.3385 40.9482 24.578 42.3237 26.1047C44.9992 29.0976 43.4121 32.423 41.1447 34.1764C40.3587 34.781 39.4367 34.645 38.5599 34.2218C37.5321 33.723 36.6403 33.0276 35.7636 32.3172C32.68 29.808 29.0824 28.7953 25.1826 28.7046C24.0943 28.6743 23.0211 28.6441 21.9328 28.7197C17.4585 28.9918 13.6796 27.2988 10.2786 24.5629C8.13219 22.8246 6.33343 20.7537 4.80675 18.4713C4.67071 18.2143 4.42886 17.9876 4.48932 17.5341Z" fill="#F5F0E8"/>
<path d="M135.3 19.0457C137.885 19.2875 140.485 19.2271 143.054 19.2573C147.529 19.3026 151.942 18.7283 156.099 16.9446C156.326 16.8388 156.553 16.7481 156.794 16.6574C156.961 16.597 157.157 16.4911 157.278 16.6876C157.369 16.8237 157.233 16.9748 157.157 17.0958C153.877 22.0537 149.781 25.9838 143.765 27.4046C142.54 27.6918 141.286 27.7674 140.031 27.7069C135.92 27.5104 131.884 27.7523 128.165 29.8382C126.911 30.5487 125.792 31.4556 124.659 32.3172C122.059 34.2822 120.29 33.8892 118.779 31.0021C117.343 28.2662 118.219 26.2256 120.139 24.3664C123.767 20.8898 128.135 19.2724 133.123 19.1666C133.501 19.1515 133.879 19.091 134.242 19.0608C134.605 19.0306 134.952 19.0457 135.3 19.0457Z" fill="#F5F0E8"/>
<path d="M40.2076 41.5226C40.1925 43.4574 39.3611 44.576 38.1972 45.4376C37.517 45.9515 36.7612 45.7701 36.0508 45.3922C35.2648 44.9841 34.5695 44.4399 33.8893 43.8807C31.5463 42.0063 28.8406 41.2505 25.8931 41.2052C24.442 41.175 22.9758 41.2657 21.5247 41.1447C19.3934 40.9633 17.5039 40.0866 15.7807 38.832C13.7401 37.3507 12.0472 35.552 10.6717 33.4509C10.5507 33.2544 10.2786 33.0276 10.5054 32.7858C10.6868 32.5893 10.9437 32.8009 11.1251 32.8765C15.2063 34.645 19.4992 34.7962 23.8525 34.5846C27.5256 34.4032 31.2138 34.3729 34.6904 35.8996C36.6101 36.7461 38.2426 37.9705 39.4669 39.7088C39.9204 40.389 40.2227 41.0843 40.2076 41.5226Z" fill="#F5F0E8"/>
<path d="M138.55 40.1622C135.617 40.1925 133.123 40.1925 130.765 41.1901C129.647 41.6587 128.634 42.3086 127.667 43.0493C127.334 43.3063 126.986 43.5784 126.639 43.8202C124.371 45.3922 122.24 44.4702 121.696 41.7191C121.394 40.1925 121.968 38.9681 122.981 37.8949C125.611 35.1136 128.936 33.9044 132.685 33.6474C135.572 33.4509 138.459 33.6625 141.346 33.6625C144.536 33.6625 147.604 33.1637 150.537 31.9393C150.733 31.8637 150.975 31.6521 151.156 31.8486C151.338 32.0451 151.111 32.287 151.005 32.4533C148.556 36.2322 145.427 39.089 140.878 40.0866C139.971 40.268 139.034 40.132 138.55 40.1622Z" fill="#F5F0E8"/>
<path d="M145.17 44.9992C145.246 45.1957 145.14 45.3469 145.034 45.498C142.964 48.5211 140.439 50.8943 136.615 51.4082C135.648 51.5292 134.65 51.4838 133.683 51.4385C131.234 51.3478 129.087 52.1187 127.183 53.6302C126.865 53.8721 126.548 54.129 126.215 54.3558C124.916 55.2627 123.389 54.8244 122.83 53.3279C122.346 52.028 122.497 50.7734 123.48 49.7455C125.596 47.5386 128.181 46.3445 131.264 46.3143C133.456 46.2991 135.633 46.3143 137.824 46.3294C140.137 46.3596 142.374 45.9515 144.52 45.0899C144.732 45.0143 144.929 44.8632 145.17 44.9992Z" fill="#F5F0E8"/>
<path d="M27.4349 52.3756C25.6966 52.6628 23.8374 52.3756 22.0839 51.4989C19.8771 50.3804 18.2143 48.6572 16.8086 46.6468C16.7028 46.4806 16.5214 46.2992 16.6574 46.1027C16.8086 45.891 17.0202 46.0271 17.2016 46.1027C20.7084 47.5386 24.3664 47.4631 28.0395 47.2666C31.6068 47.0852 34.9322 47.6596 37.7286 50.1688C39.3611 51.635 39.6785 53.8419 38.3181 55.2023C37.5019 56.0185 36.4287 56.079 35.5368 55.3685C33.9799 54.1291 32.3928 52.9349 30.3371 52.6326C29.4452 52.4966 28.5534 52.3756 27.4349 52.3756Z" fill="#F5F0E8"/>
<path d="M38.8472 61.7322C38.7867 62.5636 38.5146 63.1984 37.8344 63.5461C37.1844 63.8786 36.6252 63.6368 36.1112 63.1833C34.5997 61.838 32.7858 61.2939 30.8208 61.4299C27.9337 61.6415 25.9686 60.1602 24.2908 58.0742C24.1094 57.8626 23.8071 57.5754 24.0338 57.2882C24.2303 57.0313 24.5478 57.258 24.8047 57.3487C26.664 57.9382 28.5685 58.1196 30.5336 57.9835C32.9218 57.8173 35.2648 57.9231 37.3054 59.4195C38.0914 60.0242 38.6809 60.7799 38.8472 61.7322Z" fill="#F5F0E8"/>
<path d="M130.115 56.865C131.944 57.0615 133.788 57.1371 135.602 56.6987C136.162 56.5627 136.721 56.3813 137.28 56.2301C137.446 56.1848 137.628 56.079 137.779 56.2301C137.945 56.3964 137.794 56.5627 137.718 56.6987C136.615 58.6184 133.577 60.6892 131.204 60.3869C129.223 60.1451 127.425 60.659 125.883 62.0043C125.036 62.7601 124.25 62.8205 123.646 62.2764C122.875 61.5962 122.724 60.7043 123.298 59.7521C124.371 57.9986 126.11 57.3033 128.029 57.0161C128.71 56.9557 129.42 56.9254 130.115 56.865Z" fill="#F5F0E8"/>
</svg>
