<svg width="56" height="56" viewBox="0 0 56 56" fill="none" xmlns="http://www.w3.org/2000/svg">
<circle cx="28" cy="28" r="27.5" stroke="#FEFCF9"/>
<path d="M39.6667 28.0002C39.6667 34.4434 34.4433 39.6668 28 39.6668C25.875 39.6668 23.8827 39.0987 22.1667 38.1061L16.3333 39.0835L17.3041 32.6668C16.6797 31.2378 16.3333 29.6594 16.3333 28.0002C16.3333 21.5568 21.5567 16.3335 28 16.3335C34.4433 16.3335 39.6667 21.5568 39.6667 28.0002Z" stroke="#FEFCF9" stroke-width="1.5" stroke-linecap="round" stroke-linejoin="round"/>
<path d="M29.1205 30.1795L31.5466 29.706L33.8333 30.5839V32.7114C33.8333 33.4189 33.2247 33.9584 32.5385 33.8079C30.7616 33.4183 27.533 32.4382 25.2913 30.1795C23.1567 28.0288 22.4265 25.0334 22.1788 23.3813C22.0796 22.7196 22.6027 22.1665 23.2669 22.1665H25.4766L26.334 24.4635L25.8804 26.915" stroke="#FEFCF9" stroke-width="1.5" stroke-linecap="round" stroke-linejoin="round"/>
</svg>
