<svg width="42" height="42" viewBox="0 0 42 42" fill="none" xmlns="http://www.w3.org/2000/svg">
<path d="M12.25 15.7675L12.2675 15.748" stroke="#F5F0E8" stroke-width="1.5" stroke-linecap="round" stroke-linejoin="round"/>
<path d="M19.25 15.7675L19.2675 15.748" stroke="#F5F0E8" stroke-width="1.5" stroke-linecap="round" stroke-linejoin="round"/>
<path d="M12.25 22.7675L12.2675 22.748" stroke="#F5F0E8" stroke-width="1.5" stroke-linecap="round" stroke-linejoin="round"/>
<path d="M19.25 22.7675L19.2675 22.748" stroke="#F5F0E8" stroke-width="1.5" stroke-linecap="round" stroke-linejoin="round"/>
<path d="M12.25 29.7675L12.2675 29.748" stroke="#F5F0E8" stroke-width="1.5" stroke-linecap="round" stroke-linejoin="round"/>
<path d="M19.25 29.7675L19.2675 29.748" stroke="#F5F0E8" stroke-width="1.5" stroke-linecap="round" stroke-linejoin="round"/>
<path d="M26.25 36.75H6.3C5.7201 36.75 5.25 36.2799 5.25 35.7V9.8C5.25 9.2201 5.7201 8.75 6.3 8.75H15.75V6.3C15.75 5.7201 16.2201 5.25 16.8 5.25H25.2C25.7799 5.25 26.25 5.7201 26.25 6.3V15.75M26.25 36.75H35.7C36.2799 36.75 36.75 36.2799 36.75 35.7V16.8C36.75 16.2201 36.2799 15.75 35.7 15.75H26.25M26.25 36.75V29.75M26.25 15.75V22.75M26.25 29.75V22.75M26.25 29.75H29.75M26.25 22.75H29.75" stroke="#F5F0E8" stroke-width="1.5" stroke-linecap="round" stroke-linejoin="round"/>
</svg>
