<svg width="42" height="42" viewBox="0 0 42 42" fill="none" xmlns="http://www.w3.org/2000/svg">
<path d="M18.375 7.875V16.043C18.375 16.4051 18.1885 16.7416 17.8815 16.9334L4.8685 25.0665C4.5615 25.2584 4.375 25.595 4.375 25.9569V27.5301C4.375 28.2133 5.01695 28.7145 5.67966 28.5488L17.0703 25.7012C17.7331 25.5355 18.375 26.0367 18.375 26.7199V31.8985C18.375 32.2014 18.2443 32.4894 18.0164 32.6888L14.2359 35.9966C13.4339 36.6985 14.0666 38.0107 15.1152 37.8199L20.8122 36.7841C20.9363 36.7615 21.0637 36.7615 21.1878 36.7841L26.8849 37.8199C27.9333 38.0107 28.5661 36.6985 27.7641 35.9966L23.9836 32.6888C23.7557 32.4894 23.625 32.2014 23.625 31.8985V26.7199C23.625 26.0367 24.2669 25.5355 24.9296 25.7012L36.3204 28.5488C36.9831 28.7145 37.625 28.2133 37.625 27.5301V25.9569C37.625 25.595 37.4385 25.2584 37.1315 25.0665L24.1185 16.9334C23.8115 16.7416 23.625 16.4051 23.625 16.043V7.875C23.625 6.42525 22.4497 5.25 21 5.25C19.5503 5.25 18.375 6.42525 18.375 7.875Z" stroke="#F5F0E8" stroke-width="1.5" stroke-linecap="round" stroke-linejoin="round"/>
</svg>
