<svg width="42" height="42" viewBox="0 0 42 42" fill="none" xmlns="http://www.w3.org/2000/svg">
<path d="M10.5 22.75C7.58333 22.75 1.75 24.5 1.75 31.5C1.75 38.5 7.58333 40.25 10.5 40.25H31.5C34.4167 40.25 40.25 38.5 40.25 31.5C40.25 24.5 34.4167 22.75 31.5 22.75" stroke="#F5F0E8" stroke-width="1.5" stroke-linecap="round" stroke-linejoin="round"/>
<path d="M21 21C23.8996 21 26.25 18.6496 26.25 15.75C26.25 12.8505 23.8996 10.5 21 10.5C18.1004 10.5 15.75 12.8505 15.75 15.75C15.75 18.6496 18.1004 21 21 21Z" stroke="#F5F0E8" stroke-width="1.5" stroke-linecap="round" stroke-linejoin="round"/>
<path d="M33.25 15.75H35" stroke="#F5F0E8" stroke-width="1.5" stroke-linecap="round" stroke-linejoin="round"/>
<path d="M21 3.5V1.75" stroke="#F5F0E8" stroke-width="1.5" stroke-linecap="round" stroke-linejoin="round"/>
<path d="M32.375 6.125L30.625 7.875" stroke="#F5F0E8" stroke-width="1.5" stroke-linecap="round" stroke-linejoin="round"/>
<path d="M9.625 6.125L11.375 7.875" stroke="#F5F0E8" stroke-width="1.5" stroke-linecap="round" stroke-linejoin="round"/>
<path d="M7 15.75H8.75" stroke="#F5F0E8" stroke-width="1.5" stroke-linecap="round" stroke-linejoin="round"/>
</svg>
