<svg width="42" height="42" viewBox="0 0 42 42" fill="none" xmlns="http://www.w3.org/2000/svg">
<path d="M5.25 17.5V33.25C5.25 35.183 6.817 36.75 8.75 36.75H33.25C35.183 36.75 36.75 35.183 36.75 33.25V17.5" stroke="#F5F0E8" stroke-width="1.5"/>
<path d="M25.9583 36.75V26.25C25.9583 24.317 24.3913 22.75 22.4583 22.75H18.9583C17.0253 22.75 15.4583 24.317 15.4583 26.25V36.75" stroke="#F5F0E8" stroke-width="1.5" stroke-miterlimit="16"/>
<path d="M38.182 16.3873L35.2175 6.01155C35.0887 5.56078 34.6768 5.25 34.2079 5.25H27.125L27.9568 15.2316C27.9841 15.5583 28.1615 15.8533 28.4431 16.0212C29.1244 16.4272 30.4591 17.1797 31.5 17.5C33.2777 18.0469 35.8764 17.8496 37.3564 17.6676C37.9719 17.592 38.3525 16.9836 38.182 16.3873Z" stroke="#F5F0E8" stroke-width="1.5"/>
<path d="M24.5 17.5C25.4931 17.1944 26.7538 16.4953 27.4591 16.0791C27.7949 15.881 27.9797 15.5068 27.9473 15.1183L27.125 5.25H14.875L14.0527 15.1183C14.0203 15.5068 14.2052 15.881 14.5409 16.0791C15.2461 16.4953 16.5069 17.1944 17.5 17.5C20.1128 18.3039 21.8873 18.3039 24.5 17.5Z" stroke="#F5F0E8" stroke-width="1.5"/>
<path d="M6.78244 6.01155L3.81792 16.3873C3.64756 16.9836 4.02817 17.592 4.64364 17.6676C6.12355 17.8496 8.72244 18.0469 10.5 17.5C11.5409 17.1797 12.8757 16.4272 13.5569 16.0212C13.8384 15.8533 14.016 15.5583 14.0432 15.2316L14.875 5.25H7.79203C7.32322 5.25 6.91122 5.56078 6.78244 6.01155Z" stroke="#F5F0E8" stroke-width="1.5"/>
</svg>
