<svg width="42" height="42" viewBox="0 0 42 42" fill="none" xmlns="http://www.w3.org/2000/svg">
<path d="M5.25 26.25C9.59483 26.25 12.8535 21 12.8535 21C12.8535 21 16.1121 26.25 20.457 26.25C24.8017 26.25 29.1466 21 29.1466 21C29.1466 21 33.4913 26.25 36.75 26.25" stroke="#F5F0E8" stroke-width="1.5" stroke-linecap="round" stroke-linejoin="round"/>
<path d="M5.25 35C9.59483 35 12.8535 29.75 12.8535 29.75C12.8535 29.75 16.1121 35 20.457 35C24.8017 35 29.1466 29.75 29.1466 29.75C29.1466 29.75 33.4913 35 36.75 35" stroke="#F5F0E8" stroke-width="1.5" stroke-linecap="round" stroke-linejoin="round"/>
<path d="M33.25 17.5C33.25 10.7345 27.7655 5.25 21 5.25C14.2345 5.25 8.75 10.7345 8.75 17.5" stroke="#F5F0E8" stroke-width="1.5" stroke-linecap="round" stroke-linejoin="round"/>
</svg>
